<?xml version="1.0" encoding="UTF-8" standalone="no"?>
<svg
   xmlns:dc="http://purl.org/dc/elements/1.1/"
   xmlns:cc="http://creativecommons.org/ns#"
   xmlns:rdf="http://www.w3.org/1999/02/22-rdf-syntax-ns#"
   xmlns:svg="http://www.w3.org/2000/svg"
   xmlns="http://www.w3.org/2000/svg"
   xmlns:sodipodi="http://sodipodi.sourceforge.net/DTD/sodipodi-0.dtd"
   xmlns:inkscape="http://www.inkscape.org/namespaces/inkscape"
   inkscape:version="1.0beta1 (32d4812, 2019-09-19)"
   sodipodi:docname="sov (1).svg"
   id="svg2406"
   preserveAspectRatio="xMidYMid meet"
   viewBox="0 0 216.000000 211.000000"
   height="211.000000pt"
   width="216.000000pt"
   version="1.0">
  <defs
     id="defs2410" />
  <sodipodi:namedview
     inkscape:current-layer="svg2406"
     inkscape:window-maximized="0"
     inkscape:window-y="23"
     inkscape:window-x="0"
     inkscape:cy="560"
     inkscape:cx="400"
     inkscape:zoom="0.35"
     showgrid="false"
     id="namedview2408"
     inkscape:window-height="775"
     inkscape:window-width="1440"
     inkscape:pageshadow="2"
     inkscape:pageopacity="0"
     guidetolerance="10"
     gridtolerance="10"
     objecttolerance="10"
     borderopacity="1"
     inkscape:document-rotation="0"
     bordercolor="#666666"
     pagecolor="#ffffff" />
  <metadata
     id="metadata2396">
Created by potrace 1.15, written by Peter Selinger 2001-2017
<rdf:RDF>
  <cc:Work
     rdf:about="">
    <dc:format>image/svg+xml</dc:format>
    <dc:type
       rdf:resource="http://purl.org/dc/dcmitype/StillImage" />
  </cc:Work>
</rdf:RDF>
</metadata>
  <g
     style="fill:#4400aa"
     id="g2404"
     stroke="none"
     fill="#000000"
     transform="translate(0.000000,211.000000) scale(0.100000,-0.100000)">
    <path
       style="fill:#4400aa"
       id="path2398"
       d="M896 1975 c-366 -76 -653 -345 -747 -700 -30 -114 -37 -302 -14 -420 70 -373 353 -667 733 -762 93 -23 331 -23 424 0 318 79 573 301 687 597 66 171 79 407 32 585 -87 331 -354 598 -686 686 -104 28 -328 35 -429 14z m404 -46 c446 -106 754 -547 699 -1000 -48 -400 -343 -724 -731 -803 -99 -21 -277 -21 -376 0 -323 66 -597 314 -695 629 -171 549 192 1114 768 1195 85 12 237 3 335 -21z" />
    <path
       style="fill:#4400aa"
       id="path2400"
       d="M860 1395 l0 -35 181 -91 c100 -49 178 -93 175 -97 -4 -4 -84 -45 -179 -92 l-172 -85 -3 -37 c-2 -22 1 -38 7 -38 14 0 511 248 511 255 0 7 -497 255 -510 255 -5 0 -10 -16 -10 -35z" />
    <path
       style="fill:#4400aa"
       id="path2402"
       d="M860 795 l0 -35 265 0 265 0 0 35 0 35 -265 0 -265 0 0 -35z" />
  </g>
</svg>
